<svg
  xmlns="http://www.w3.org/2000/svg"
  class="css-1lf8p8u"
  width="300"
  height="300"
>
  <style>
    path {
      fill: none;
      stroke: #000;
      stroke-width: 0.02;
    }
  </style>
  <symbol
    viewBox="-0.866025447845459 -1 1.732050895690918 2"
    id="box1"
    class="css-c6okom"
  >
    <style>
      g.a-12 path {
        fill: #275d50;
      }
      g.a-10 path,
      g.a-11 path {
        fill: #f9c057;
      }
      g.b path,
      g.d path {
        fill: #f38c03;
      }
    </style>
    <g transform="scale(0.2)">
      <g class="a-10">
        <path
          d="M0.8660254037844384,-0.5000000000000004L0.8660254037844384,-0.5000000000000004L0.8660254037844387,0.49999999999999994L6.123233995736766e-17,1L0,0Z"
        ></path>
      </g>
      <g class="a-11">
        <path
          d="M6.123233995736766e-17,1L6.123233995736766e-17,1L-0.8660254037844385,0.5000000000000003L-0.8660254037844388,-0.4999999999999997L0,0Z"
        ></path>
      </g>
      <g class="a-12">
        <path
          d="M-0.8660254037844388,-0.4999999999999997L-0.8660254037844388,-0.4999999999999997L-1.8369701987210297e-16,-1L0.8660254037844384,-0.5000000000000004L0,0Z"
        ></path>
      </g>
      <g class="b">
        <path
          d="M-0.8660254037844387,1.1102230246251565e-16L-0.8660254037844387,1.1102230246251565e-16L-0.8660254037844385,0.5000000000000003L-0.43301270189221935,0.7500000000000001L-0.43301270189221924,0.2500000000000001Z"
        ></path>
      </g>
      <g class="c">
        <path
          d="M-0.866 -0.175H-0.866L-0.866 0.5L-0.2815 0.8375L-0.2815 0.1625Z"
        ></path>
      </g>
      <g class="d">
        <path
          d="M0.43301270189221974,0.7499999999999998L0.43301270189221974,0.7499999999999998L0.8660254037844387,0.49999999999999994L0.8660254037844385,-4.440892098500626e-16L0.4330127018922193,0.24999999999999986Z"
        ></path>
      </g>
      <g class="e">
        <path
          d="M0.2815 0.8375H0.2815L0.866 0.5L0.866 -0.175L0.2815 0.1625Z"
        ></path>
      </g>
    </g>
  </symbol>
  <symbol
    id="box2"
    viewBox="-0.866025447845459 -1 1.732050895690918 2"
    class="css-pme3dl"
  >
    <style>
      g.a-22 path {
        fill: #f9c059;
      }
      g.a-20 path,
      g.a-21 path {
        fill: #178e68;
      }
    </style>
    <g transform="scale(0.2)">
      <g class="a-20">
        <path
          d="M0.8660254037844384,-0.5000000000000004L0.8660254037844384,-0.5000000000000004L0.8660254037844387,0.49999999999999994L6.123233995736766e-17,1L0,0Z"
        ></path>
      </g>
      <g class="a-21">
        <path
          d="M6.123233995736766e-17,1L6.123233995736766e-17,1L-0.8660254037844385,0.5000000000000003L-0.8660254037844388,-0.4999999999999997L0,0Z"
        ></path>
      </g>
      <g class="a-22">
        <path
          d="M-0.8660254037844388,-0.4999999999999997L-0.8660254037844388,-0.4999999999999997L-1.8369701987210297e-16,-1L0.8660254037844384,-0.5000000000000004L0,0Z"
        ></path>
      </g>
    </g>
  </symbol>
  <symbol id="bebop">
    <g transform="translate(78,-135)">
      <use href="#box1" transform="translate(-208, 0)"></use>
      <use href="#box2" transform="translate(-156, 0)"></use>
      <use href="#box1" transform="translate(-104, 0)"></use>
      <use href="#box2" transform="translate(-52, 0)"></use>
      <use href="#box1" transform="translate(0, 0)"></use>
      <use href="#box2" transform="translate(52, 0)"></use>
      <use href="#box1" transform="translate(104, 0)"></use>
      <use href="#box2" transform="translate(156, 0)"></use>
    </g>
    <g transform="translate(52,-90)">
      <use href="#box1" transform="translate(-208, 0)"></use>
      <use href="#box2" transform="translate(-156, 0)"></use>
      <use href="#box1" transform="translate(-104, 0)"></use>
      <use href="#box2" transform="translate(-52, 0)"></use>
      <use href="#box1" transform="translate(0, 0)"></use>
      <use href="#box2" transform="translate(52, 0)"></use>
      <use href="#box1" transform="translate(104, 0)"></use>
      <use href="#box2" transform="translate(156, 0)"></use>
    </g>
    <g transform="translate(26,-45)">
      <use href="#box2" transform="translate(-156, 0)"></use>
      <use href="#box1" transform="translate(-104, 0)"></use>
      <use href="#box2" transform="translate(-52, 0)"></use>
      <use href="#box1" transform="translate(0, 0)"></use>
      <use href="#box2" transform="translate(52, 0)"></use>
      <use href="#box1" transform="translate(104, 0)"></use>
      <use href="#box2" transform="translate(156, 0)"></use>
    </g>
    <g transform="translate(0,0)">
      <use href="#box2" transform="translate(-156, 0)"></use>
      <use href="#box1" transform="translate(-104, 0)"></use>
      <use href="#box2" transform="translate(-52, 0)"></use>
      <use href="#box1" transform="translate(0, 0)"></use>
      <use href="#box2" transform="translate(52, 0)"></use>
      <use href="#box1" transform="translate(104, 0)"></use>
      <use href="#box2" transform="translate(156, 0)"></use>
    </g>
    <g transform="translate(26,45)">
      <use href="#box2" transform="translate(-156, 0)"></use>
      <use href="#box1" transform="translate(-104, 0)"></use>
      <use href="#box2" transform="translate(-52, 0)"></use>
      <use href="#box1" transform="translate(0, 0)"></use>
      <use href="#box2" transform="translate(52, 0)"></use>
      <use href="#box1" transform="translate(104, 0)"></use>
      <use href="#box2" transform="translate(156, 0)"></use>
    </g>
    <g transform="translate(52,90)">
      <use href="#box1" transform="translate(-208, 0)"></use>
      <use href="#box2" transform="translate(-156, 0)"></use>
      <use href="#box1" transform="translate(-104, 0)"></use>
      <use href="#box2" transform="translate(-52, 0)"></use>
      <use href="#box1" transform="translate(0, 0)"></use>
      <use href="#box2" transform="translate(52, 0)"></use>
      <use href="#box1" transform="translate(104, 0)"></use>
      <use href="#box2" transform="translate(156, 0)"></use>
    </g>
    <g transform="translate(78,135)">
      <use href="#box1" transform="translate(-208, 0)"></use>
      <use href="#box2" transform="translate(-156, 0)"></use>
      <use href="#box1" transform="translate(-104, 0)"></use>
      <use href="#box2" transform="translate(-52, 0)"></use>
      <use href="#box1" transform="translate(0, 0)"></use>
      <use href="#box2" transform="translate(52, 0)"></use>
      <use href="#box1" transform="translate(104, 0)"></use>
      <use href="#box2" transform="translate(156, 0)"></use>
    </g>
  </symbol>
  <use href="#bebop" transform="translate(0, 0)"></use>
</svg>
